<?xml version="1.0" standalone="no"?><!DOCTYPE svg PUBLIC "-//W3C//DTD SVG 1.1//EN" "http://www.w3.org/Graphics/SVG/1.1/DTD/svg11.dtd"><svg t="1484215661043" class="icon" style="" viewBox="0 0 1024 1024" version="1.1" xmlns="http://www.w3.org/2000/svg" p-id="4649" xmlns:xlink="http://www.w3.org/1999/xlink" width="30" height="30"><defs><style type="text/css"></style></defs><path d="M947.250316 709.310122c-2.623614 1.042257-5.426927 2.228275-8.23024 3.198652l-116.948477-290.825776 25.193879-1.904815-0.07188-17.898077-34.394497-2.372034-2.012635-1.581356c-1.006318-0.754738-2.228275-1.401657-3.486172-1.761056l-4.564369-0.934438c-1.617296 0-3.162712 0.323459-4.06121 0.718798l-2.587674 0.14376-1.725116 2.120455-250.177734-18.113716 0.07188-4.564369c0.03594-35.328934-2.336094-150.731995-32.274042-150.731995-29.937947 0-32.238102 115.403061-32.238102 150.731995l0.07188 4.959708L229.925593 398.573635l-0.682858-0.575039c-1.006318-0.826618-2.228275-1.365717-3.486172-1.761056l-4.564369-0.934438c-1.329777 0-2.623614 0.251579-3.881511 0.718798l-2.551734 0.14376-2.659554 2.947073-30.405166 2.947073-0.03594 17.862137 20.44981 1.545416L84.979924 712.688474c-2.803313-1.042257-5.570687-2.120455-8.23024-3.234592L53.891899 699.354766l11.249193 22.282746c23.360943 46.434368 86.112031 77.522392 156.051102 77.522392 69.903131 0 132.618279-31.088025 156.122982-77.486452l11.285133-22.318686-22.929664 9.955356c-2.623614 1.186017-5.390987 2.228275-8.23024 3.306472l-115.906219-288.309982 240.869297 17.466798c7.187983 84.566615 23.360943 84.566615 29.578548 84.566615 6.181665 0 22.426506 0 29.542608-84.171276l240.833357-17.466798-115.870279 287.950583c-2.803313-1.006318-5.534747-2.156395-8.23024-3.270532l-22.893725-9.955356 11.249193 22.318686c23.360943 46.398428 86.112031 77.522392 156.122982 77.522392 69.903131 0 132.546399-31.123965 156.087042-77.558332l11.213253-22.282746L947.250316 709.310122zM331.383967 721.781272c-69.831251 21.779587-150.516355 21.779587-220.347606 0l110.119893-273.754317L331.383967 721.781272zM692.616033 721.781272l110.119893-273.754317 110.048013 273.754317C843.096448 743.632739 762.447283 743.632739 692.616033 721.781272z" fill="#3498db" p-id="4650"></path></svg>